<svg xmlns="http://www.w3.org/2000/svg" xmlns:xlink="http://www.w3.org/1999/xlink" width="500" zoomAndPan="magnify" viewBox="0 0 375 374.999991" height="500" preserveAspectRatio="xMidYMid meet" version="1.0"><defs><clipPath id="4f25559a52"><path d="M 56.777344 20.441406 L 318.527344 20.441406 L 318.527344 354 L 56.777344 354 Z M 56.777344 20.441406 " clip-rule="nonzero"/></clipPath></defs><rect x="-37.5" width="450" fill="#ffffff" y="-37.499999" height="449.999989" fill-opacity="1"/><rect x="-37.5" width="450" fill="#ffffff" y="-37.499999" height="449.999989" fill-opacity="1"/><rect x="-37.5" width="450" fill="#050a30" y="-37.499999" height="449.999989" fill-opacity="1"/><g clip-path="url(#4f25559a52)"><path fill="#08fdd8" d="M 218.363281 137.308594 L 156.925781 137.308594 L 156.925781 52.816406 L 124.667969 20.628906 L 56.777344 20.628906 L 56.777344 321.816406 L 89.039062 354 L 156.925781 354 L 156.925781 237.242188 L 218.363281 237.207031 L 218.363281 321.816406 L 250.625 354 L 318.527344 354 L 318.527344 52.816406 L 286.269531 20.628906 L 218.371094 20.628906 L 218.371094 137.308594 Z M 124.667969 26.542969 L 152.734375 54.539062 L 152.734375 137.308594 L 124.667969 137.308594 Z M 152.726562 346.855469 L 124.664062 318.851562 L 124.664062 208.019531 L 152.726562 236.023438 Z M 286.269531 26.542969 L 314.332031 54.539062 L 314.332031 346.855469 L 286.269531 318.851562 Z M 222.5625 24.800781 L 282.070312 24.800781 L 282.070312 317.632812 L 222.5625 317.632812 L 222.5625 200.878906 L 120.46875 200.878906 L 120.46875 317.632812 L 60.96875 317.632812 L 60.96875 24.800781 L 120.472656 24.800781 L 120.472656 141.476562 L 222.5625 141.476562 Z M 113.011719 32.246094 L 68.417969 32.246094 L 68.417969 310.183594 L 113.011719 310.183594 L 113.011719 193.449219 L 230.011719 193.449219 L 230.011719 310.183594 L 274.613281 310.183594 L 274.613281 32.246094 L 230.011719 32.246094 L 230.011719 148.9375 L 113.011719 148.9375 Z M 113.246094 157.761719 L 238.859375 157.761719 L 238.859375 41.070312 L 270.414062 41.070312 L 270.414062 306.003906 L 238.859375 306.003906 L 238.859375 193.667969 L 234.207031 189.265625 L 108.820312 189.265625 L 108.820312 306 L 77.269531 306 L 77.269531 41.070312 L 108.820312 41.070312 L 108.820312 153.113281 Z M 113.246094 157.761719 " fill-opacity="1" fill-rule="nonzero"/></g></svg>